<?xml version="1.0" encoding="UTF-8"?>
<svg xmlns="http://www.w3.org/2000/svg" xmlns:xlink="http://www.w3.org/1999/xlink" version="1.1" id="Ebene_1" x="0px" y="0px" width="1197.667px" height="548.107px" viewBox="0 0 1197.667 548.107" xml:space="preserve">
<g>
	<path fill="#0096D8" d="M236.207,347.588h-92.949c12.693-55.158,43.679-101.616,92.949-139.131V347.588 M100.078,381.383h172.698   V144.104c-51.806,27.083-91.677,58.885-119.363,95.903C124.717,279.018,106.937,325.977,100.078,381.383z M94.495,217.897   c46.982-84.472,129.521-142.612,247.613-174.17v470.084h-70.602v-64.852H100.078v64.852H36.593   c0-62.115,4.06-115.781,12.188-161.248C58.179,300.635,73.416,255.665,94.495,217.897z M15.259,351.319   c-9.399,53.668-13.713,119.01-12.95,196.279h132.309v-64.846h102.349v64.846h139.679V0.003   c-77.46,17.141-141.71,41.988-192.755,75.032c-48.508,31.306-86.601,70.561-114.283,117.767   C43.957,236.779,25.926,289.454,15.259,351.319z"></path>
	<path fill="#0096D8" d="M612.828,279.764h-42.412V135.409c35.049,2.241,60.699,10.932,76.697,26.336   c13.459,12.923,19.557,29.319,17.779,49.196c-1.271,17.145-7.619,33.044-19.049,47.454   C634.925,272.557,623.75,279.764,612.828,279.764 M543.754,0.003L432.773,1.987v546.105h139.167v-132.92   c69.334,0,124.693-17.641,165.582-52.674c36.824-31.555,57.65-72.055,62.73-121.744c4.568-47.454-6.098-92.425-31.75-134.415   c-27.422-44.472-66.281-74.786-116.309-91.43C623.75,5.715,587.688,0.747,543.754,0.003z M641.017,46.961   c44.951,14.906,78.221,41.243,99.811,78.761c19.805,34.038,27.428,71.304,22.6,111.804c-4.572,40-19.807,73.541-45.967,100.377   c-28.188,29.316-62.98,43.979-104.633,43.979h-75.17l0.253,132.178h-70.603V35.528l87.872-0.744   C589.465,35.279,617.91,39.256,641.017,46.961z M583.878,101.371l-48-0.247v212.434h76.95c22.855,0,42.156-9.197,57.904-27.334   c14.223-16.896,22.855-37.763,25.902-62.365c2.795-25.092-1.268-48.197-11.68-69.067c-11.684-22.613-29.711-37.766-53.84-45.966   C619.179,104.6,603.433,102.115,583.878,101.371z"></path>
	<path fill="#0096D8" d="M869.835,148.077c9.906-51.674,38.854-85.464,86.854-101.119c18.539-6.211,41.654-10.184,68.828-11.925   c15.488-0.744,39.617-0.995,72.885-0.744v68.819l-46.984-1.491c-19.557-0.494-35.551,0.746-47.744,3.479   c-34.793,7.206-52.316,28.822-52.316,64.846c0,26.087,10.926,45.715,33.02,58.387c8.123,4.97,19.297,9.94,33.523,14.661   l38.598,11.675c32.76,10.435,56.633,23.356,71.615,38.761c22.1,22.113,33.018,53.916,33.018,95.656   c0,39.254-18.539,70.563-55.867,93.914c-31.75,20.373-69.08,30.559-111.494,30.559l-257.516,0.248v-69.813h254.723   c19.811,0,36.313-4.969,49.775-14.91c14.984-11.178,22.346-26.09,22.346-45.217c0-25.096-11.68-45.221-35.043-59.879   c-8.889-5.715-20.57-11.678-35.047-17.887l-39.361-15.654c-32.766-13.415-55.365-28.572-68.066-45.216   C867.042,221.377,861.964,189.076,869.835,148.077 M840.376,224.603c10.418,35.531,31.49,63.109,63.742,82.74   c10.412,6.209,22.604,11.922,36.57,16.893l38.607,11.682c13.711,3.971,25.139,10.182,34.537,18.877   c8.377,7.953,13.205,16.15,14.982,24.848c1.52,8.697-0.764,15.652-6.857,21.365c-6.602,6.211-17.014,9.191-30.984,9.191   l-289.26-0.246V548.09l292.309-0.492c52.063,0,97.268-13.418,135.869-40.004c43.68-30.059,65.525-69.568,65.775-118.512   c-0.25-44.727-11.176-80.748-32.762-107.828c-16.506-20.621-40.383-37.269-71.871-50.189c-9.141-3.726-22.09-8.447-38.6-13.667   l-33.52-12.177c-21.59-9.191-32.512-20.865-32.512-35.279c0-23.105,19.809-35.28,59.684-37.019l49.01,1.739l37.842,2.237V0H996.564   c-37.334,0.247-70.094,12.671-98.795,37.019c-26.408,22.611-44.949,51.183-55.615,86.214   C831.23,158.513,830.47,192.306,840.376,224.603z"></path>
</g>
</svg>
